# xmcd
#
# Track frame offsets: 
#        151
#        20557
#        41834
#        59523
#        81556
#        104328
#        121934
#        138933
#        160436
#        176987
#        188135
#        204558
#        221258
#        239752
#        259988
#        279466
#
# Disc length: 4007 seconds
#
# Revision: 3
# Processed by: cddbd v1.5.2PL0 Copyright (c) Steve Scherf et al.
# Submitted via: ExactAudioCopyFreeDBPlugin 1.0
#
DISCID=fa0fa510
DTITLE=中國群星 - 信和25週年紀念CD
DYEAR=2007
DGENRE=Booty Bass
TTITLE0=天涯歌女 
TTITLE1=假如我是真的 
TTITLE2=晚秋 
TTITLE3=江南桃花女 
TTITLE4=問道 
TTITLE5=最愛是誰 
TTITLE6=遇見 
TTITLE7=夜上海 
TTITLE8=南泥灣 
TTITLE9=音樂女孩 
TTITLE10=欲 
TTITLE11=順流逆流
TTITLE12=永遠的微笑
TTITLE13=萬泉河水清又清 
TTITLE14=愛的見證 
TTITLE15=街頭月
EXTD=
EXTT0=
EXTT1=
EXTT2=
EXTT3=
EXTT4=
EXTT5=
EXTT6=
EXTT7=
EXTT8=
EXTT9=
EXTT10=
EXTT11=
EXTT12=
EXTT13=
EXTT14=
EXTT15=
PLAYORDER=
